<svg width="665" height="714" viewBox="0 0 665 714" fill="none" xmlns="http://www.w3.org/2000/svg">
<path d="M297.37 323.23C297.25 318.23 295.85 314.04 293.84 311.73L292.25 318V310.47C291.552 310.042 290.736 309.849 289.92 309.92C286.01 310.28 282.99 316.85 283.17 324.59C283.35 332.33 286.67 338.32 290.58 337.96C294.49 337.6 297.55 331 297.37 323.23Z" fill="#57B894"/>
<path opacity="0.1" d="M296.42 327C294.78 327.36 293.19 328.37 291.55 328.57C289.91 328.77 288.11 327.99 287.08 325.46C286.52 324.1 286.24 322.38 285.77 320.89C285.407 319.673 284.797 318.543 283.98 317.57C283.409 319.858 283.153 322.213 283.22 324.57C283.4 332.31 286.72 338.29 290.63 337.93C293.91 337.63 296.56 332.93 297.22 326.87C296.951 326.898 296.684 326.941 296.42 327V327Z" fill="black"/>
<path d="M622.25 271.54C618.75 268.03 614.82 265.93 611.77 265.64L614.9 271.24L609.75 265.75C608.951 265.921 608.226 266.341 607.68 266.95C605.09 269.95 607.43 276.75 612.9 282.24C618.37 287.73 624.9 289.78 627.48 286.82C630.06 283.86 627.69 277 622.25 271.54Z" fill="#57B894"/>
<path opacity="0.1" d="M624.11 274.91C623.17 276.29 622.71 278.12 621.66 279.39C620.61 280.66 618.77 281.34 616.28 280.23C614.93 279.63 613.54 278.57 612.18 277.82C611.078 277.181 609.856 276.776 608.59 276.63C609.756 278.685 611.195 280.573 612.87 282.24C618.34 287.73 624.87 289.78 627.45 286.82C629.61 284.34 628.31 279.13 624.61 274.27C624.427 274.47 624.26 274.684 624.11 274.91Z" fill="black"/>
<path d="M365.18 292L347.96 282C347.96 282 306.34 276.26 312.08 256.17C317.82 236.08 346.53 256.17 346.53 256.17L365.18 269V292Z" fill="#FFC1C7"/>
<path opacity="0.1" d="M365.18 292L347.96 282C347.96 282 306.34 276.26 312.08 256.17C317.82 236.08 346.53 256.17 346.53 256.17L365.18 269V292Z" fill="black"/>
<path d="M428.32 190.11C428.32 190.11 386.71 220.25 386.71 210.2C386.71 204.2 379.45 185.67 373.65 171.88C369.81 162.74 366.65 155.67 366.65 155.67L409.65 144.19C408.328 151.146 408.491 158.302 410.13 165.19C412.666 175.572 419.205 184.53 428.32 190.11V190.11Z" fill="#FFC1C7"/>
<path d="M342.25 445.94C342.25 445.94 309.25 519.13 320.72 546.39C320.72 546.39 284.85 655.46 273.37 659.76C261.89 664.06 302.07 671.24 302.07 671.24C302.07 671.24 349.4 608.1 352.25 557.87C355.1 507.64 406.8 456 406.8 456L342.25 445.94Z" fill="#FFC1C7"/>
<path d="M418.25 475.68C418.25 475.68 436.9 535.96 461.3 553.18C461.3 553.18 511.53 636.41 504.3 662.24C504.3 662.24 533 666.55 534.44 662.24C534.44 662.24 521.52 571.83 489.95 535.96C458.38 500.09 472.81 457 472.81 457L418.25 475.68Z" fill="#FFC1C7"/>
<path d="M291.99 661.2C291.99 661.2 274.77 646.85 261.86 658.33C248.95 669.81 225.98 666.94 208.76 661.2C191.54 655.46 192.98 669.81 233.16 688.46C273.34 707.11 296.3 711.46 296.3 711.46C296.3 711.46 302.04 688.46 302.04 682.76C302.04 677.06 305.61 666.29 305.61 666.29L291.99 661.2Z" fill="#F2F2F2"/>
<path d="M518.73 659.37C518.73 659.37 501.51 649.37 498.64 667.98C495.77 686.59 454.15 698.12 454.15 698.12C454.15 698.12 434.06 716.77 495.77 711C557.48 705.23 553.17 693.78 553.17 693.78L533.63 656.64L518.73 659.37Z" fill="#F2F2F2"/>
<path d="M365.18 379.54C365.18 379.54 320.69 442.68 337.91 449.85C355.13 457.02 353.7 438.37 370.91 458.46C388.12 478.55 432.62 468.46 438.36 464.2C444.1 459.94 458.45 441.2 469.93 442.68C481.41 444.16 451.25 369.49 451.25 369.49L365.18 379.54Z" fill="#3F3D56"/>
<path opacity="0.1" d="M406.25 159C400.11 164.73 395.77 174.45 386.71 174.45C382.23 174.457 377.793 173.583 373.65 171.88C369.81 162.74 366.65 155.67 366.65 155.67L409.65 144.19C408.25 152.41 404.78 153.16 406.25 159Z" fill="black"/>
<path d="M386.71 171.45C405.731 171.45 421.15 156.031 421.15 137.01C421.15 117.989 405.731 102.57 386.71 102.57C367.689 102.57 352.27 117.989 352.27 137.01C352.27 156.031 367.689 171.45 386.71 171.45Z" fill="#FFC1C7"/>
<path d="M406.8 185.81C406.8 185.81 391.92 200.91 385.01 201.97C378.1 203.03 352.25 247.51 359.44 283.39C366.63 319.27 350.83 393.89 358.01 398.19C365.19 402.49 480.01 382.41 480.01 382.41L406.8 185.81Z" fill="#F2F2F2"/>
<path d="M421.15 178.63C421.15 178.63 395.32 170.02 386.71 215.94C378.1 261.86 366.62 223.12 366.62 281.94C366.62 340.76 362.31 362.31 369.49 412.53C376.67 462.75 382.4 462.76 373.79 479.98C365.18 497.2 465.63 492.9 490.03 459.89C514.43 426.88 482.85 303.47 469.94 284.81C457.03 266.15 457.02 208.76 446.94 194.41C443.928 190.176 440.091 186.595 435.658 183.883C431.226 181.171 426.291 179.384 421.15 178.63V178.63Z" fill="#6C63FF"/>
<path d="M420.38 459.52L407.67 443.62L367.1 250L394.37 199.1C396.673 194.797 399.985 191.116 404.022 188.373C408.059 185.63 412.701 183.907 417.55 183.35C422.372 182.757 427.265 183.359 431.799 185.103C436.333 186.847 440.369 189.679 443.55 193.35C483.02 238.29 502.83 377.64 503.65 383.55L503.73 384.11L499.73 394.52L478.73 441.59L420.38 459.52ZM411.67 441.74L421.91 454.54L475.55 438L495.71 392.82L499.3 383.55C497.88 373.77 477.71 238.72 440.3 196.14C437.538 193.016 434.062 190.607 430.167 189.119C426.272 187.63 422.075 187.106 417.934 187.592C413.792 188.077 409.83 189.557 406.385 191.906C402.94 194.255 400.115 197.402 398.15 201.08L371.63 250.61L411.67 441.74Z" fill="#2F2E41"/>
<path d="M333.61 266.17L296.32 233C295.918 232.639 295.659 232.145 295.591 231.609C295.523 231.073 295.651 230.53 295.95 230.08L296.41 229.38C296.57 229.131 296.783 228.921 297.033 228.764C297.284 228.608 297.566 228.509 297.86 228.474C298.154 228.44 298.451 228.471 298.731 228.565C299.011 228.66 299.267 228.815 299.48 229.02L333.48 260.52C333.871 260.875 334.186 261.307 334.406 261.787C334.625 262.268 334.745 262.789 334.757 263.317C334.769 263.846 334.674 264.371 334.476 264.861C334.279 265.352 333.985 265.797 333.61 266.17V266.17Z" fill="#6C63FF"/>
<path d="M333.61 266.17L296.32 233C295.918 232.639 295.659 232.145 295.591 231.609C295.523 231.073 295.651 230.53 295.95 230.08L296.41 229.38L333.52 262.66C333.765 262.879 333.963 263.146 334.101 263.445C334.24 263.743 334.315 264.067 334.324 264.396C334.332 264.724 334.273 265.051 334.15 265.357C334.028 265.662 333.844 265.939 333.61 266.17V266.17Z" fill="#192534"/>
<path d="M444.11 273.34C444.11 273.34 391.01 269.04 380.97 250.34C370.93 231.64 345.09 241.73 352.27 250.34C359.45 258.95 358.01 279.04 378.1 280.48C398.19 281.92 448.41 292 448.41 292L444.11 273.34Z" fill="#FFC1C7"/>
<path d="M501.51 383.84C501.51 383.84 465.63 386.71 457.02 424.02C448.41 461.33 409.67 442.68 409.67 442.68C409.67 442.68 405.36 540.26 468.5 515.87C531.64 491.48 546 445.55 546 439.81C546 434.07 502.95 399.63 501.51 383.84Z" fill="#2F2E41"/>
<path opacity="0.1" d="M412.54 449.85C412.54 449.85 451.25 468.51 459.89 431.2C468.09 395.66 501 391.37 504.12 391.04C502.776 388.84 501.888 386.391 501.51 383.84C501.51 383.84 465.63 386.71 457.02 424.02C448.41 461.33 409.67 442.68 409.67 442.68C409.67 442.68 408.27 474.53 418.84 497.29C411.41 475.56 412.54 449.85 412.54 449.85Z" fill="black"/>
<path opacity="0.1" d="M545.69 442C545.859 441.291 545.962 440.568 546 439.84C546 434.93 514.49 409 504.49 391.73C506.61 405.07 535.89 430.52 545.69 442Z" fill="black"/>
<path d="M342.25 112.85C340.25 119.13 346.72 125.48 353.25 126.14C359.78 126.8 366.11 123.67 372.09 120.87C378.07 118.07 384.75 115.45 391.14 117.15C398.14 119 402.8 125.51 405.91 132.01C408.625 137.695 410.605 143.704 411.8 149.89C413.08 156.51 413.67 163.79 418.22 168.79C422.77 173.79 430.32 175.14 437.22 175.11C444.12 175.08 451.1 174.11 457.75 175.81C470.95 179.25 479.12 192.4 483.83 205.17C488.54 217.94 491.37 231.85 499.9 242.48C507.01 251.36 517.38 256.99 527.77 261.66C533.01 264.01 538.44 266.2 544.16 266.74C549.88 267.28 556.02 265.95 560.16 262.03C564.83 257.65 566.33 250.97 567.6 244.71C569.45 235.63 571.3 226.3 569.77 217.15C567.77 205.15 560.06 194.6 558.29 182.55C556.57 170.83 560.62 159 560.21 147.16C559.52 127.34 544.93 108.76 525.8 103.33C518.8 101.33 511.45 100.97 504.73 98.33C495.97 94.84 489.22 87.82 482.06 81.69C464.947 67.0718 444.516 56.8648 422.55 51.96C407.81 48.69 390.37 48.64 379.95 59.53C375.72 63.96 372.95 69.95 367.55 72.91C364.78 74.44 361.6 74.99 358.62 76.02C343.9 81.08 335.44 99.42 341.15 113.86" fill="#2F2E41"/>
<path opacity="0.1" d="M552.82 252.39C547.1 251.85 541.67 249.66 536.43 247.31C526.04 242.64 515.68 237.01 508.56 228.13C500.03 217.5 497.19 203.6 492.49 190.82C487.79 178.04 479.61 164.9 466.41 161.46C459.76 159.72 452.75 160.73 445.88 160.76C439.01 160.79 431.53 159.52 426.88 154.44C422.23 149.36 421.74 142.16 420.46 135.54C419.266 129.354 417.287 123.345 414.57 117.66C411.46 111.16 406.78 104.66 399.8 102.8C393.41 101.1 386.73 103.72 380.75 106.52C374.77 109.32 368.49 112.45 361.91 111.79C355.33 111.13 348.91 104.79 350.91 98.5L349.91 99.5C347.759 93.8425 347.52 87.6361 349.23 81.83C340.76 89.78 336.97 102.93 341.29 113.83L342.29 112.83C340.29 119.11 346.76 125.46 353.29 126.12C359.82 126.78 366.15 123.65 372.13 120.85C378.11 118.05 384.79 115.43 391.18 117.13C398.18 118.98 402.84 125.49 405.95 131.99C408.665 137.675 410.645 143.684 411.84 149.87C413.12 156.49 413.71 163.77 418.26 168.77C422.81 173.77 430.36 175.12 437.26 175.09C444.16 175.06 451.14 174.09 457.79 175.79C470.99 179.23 479.16 192.38 483.87 205.15C488.58 217.92 491.41 231.83 499.94 242.46C507.05 251.34 517.42 256.97 527.81 261.64C533.05 263.99 538.48 266.18 544.2 266.72C549.92 267.26 556.06 265.93 560.2 262.01C563.72 258.71 565.44 254.09 566.62 249.33C562.485 251.849 557.632 252.925 552.82 252.39Z" fill="black"/>
<path d="M406.8 198.72C406.8 198.72 402.49 230.29 418.28 237.47C434.07 244.65 445.54 269 445.54 269L432.63 271.87C432.63 271.87 428.32 291.96 439.8 297.7C451.28 303.44 482.85 297.7 482.85 297.7C482.85 297.7 497.21 290.52 485.72 267.56C474.23 244.6 441.25 194.42 441.25 194.42C441.25 194.42 424.02 175.76 406.8 198.72Z" fill="#6C63FF"/>
<path d="M411 147.86C414.816 147.86 417.91 143.222 417.91 137.5C417.91 131.778 414.816 127.14 411 127.14C407.184 127.14 404.09 131.778 404.09 137.5C404.09 143.222 407.184 147.86 411 147.86Z" fill="#FFC1C7"/>
<path d="M411 142.1C412.905 142.1 414.45 140.555 414.45 138.65C414.45 136.745 412.905 135.2 411 135.2C409.095 135.2 407.55 136.745 407.55 138.65C407.55 140.555 409.095 142.1 411 142.1Z" fill="#F2F2F2"/>
<path d="M409.664 144.607C410.664 142.618 410.783 140.658 409.929 140.229C409.076 139.8 407.573 141.064 406.573 143.052C405.573 145.04 405.454 147 406.308 147.43C407.161 147.859 408.664 146.595 409.664 144.607Z" fill="#F2F2F2"/>
<path d="M553.37 36.23C553.25 31.28 551.85 27.04 549.84 24.73L548.25 31V23.47C547.552 23.0417 546.736 22.8489 545.92 22.92C542.01 23.28 538.99 29.85 539.17 37.59C539.35 45.33 542.67 51.32 546.58 50.96C550.49 50.6 553.55 44 553.37 36.23Z" fill="#57B894"/>
<path opacity="0.1" d="M552.42 40C550.78 40.36 549.19 41.37 547.55 41.57C545.91 41.77 544.11 40.99 543.08 38.46C542.52 37.1 542.24 35.38 541.77 33.89C541.407 32.6726 540.797 31.5426 539.98 30.57C539.409 32.8578 539.153 35.2129 539.22 37.57C539.4 45.31 542.72 51.29 546.63 50.93C549.91 50.63 552.56 45.93 553.22 39.87C552.951 39.8978 552.684 39.9413 552.42 40V40Z" fill="black"/>
<path d="M625.87 444.17C630.4 442.17 633.77 439.24 635.13 436.49L628.78 437.41L635.78 434.57C635.906 433.763 635.773 432.937 635.4 432.21C633.57 428.74 626.34 428.47 619.26 431.61C612.18 434.75 607.92 440.1 609.75 443.61C611.58 447.12 618.78 447.31 625.87 444.17Z" fill="#57B894"/>
<path opacity="0.1" d="M622.05 444.72C621.05 443.35 619.55 442.27 618.74 440.83C617.93 439.39 617.95 437.43 619.89 435.51C620.89 434.51 622.41 433.51 623.6 432.51C624.591 431.714 625.405 430.719 625.99 429.59C623.657 429.948 621.383 430.621 619.23 431.59C612.15 434.73 607.89 440.08 609.72 443.59C611.26 446.5 616.6 447.16 622.46 445.44C622.337 445.192 622.201 444.952 622.05 444.72Z" fill="black"/>
<path d="M240.87 490.17C245.4 488.17 248.77 485.24 250.13 482.49L243.78 483.41L250.78 480.57C250.906 479.763 250.773 478.937 250.4 478.21C248.57 474.74 241.34 474.47 234.26 477.61C227.18 480.75 222.92 486.1 224.75 489.61C226.58 493.12 233.78 493.31 240.87 490.17Z" fill="#57B894"/>
<path opacity="0.1" d="M237.05 490.72C236.05 489.35 234.55 488.27 233.74 486.83C232.93 485.39 232.95 483.43 234.89 481.51C235.89 480.51 237.41 479.51 238.6 478.51C239.591 477.714 240.405 476.719 240.99 475.59C238.657 475.948 236.383 476.621 234.23 477.59C227.15 480.73 222.89 486.08 224.72 489.59C226.26 492.5 231.6 493.16 237.46 491.44C237.337 491.192 237.201 490.952 237.05 490.72Z" fill="black"/>
<path opacity="0.3" d="M190 38H63V50H190V38Z" fill="#3C354C"/>
<path opacity="0.1" d="M247.5 192.87L221.72 148H0V1H292V148H247.5V192.87ZM1 147H222.3L246.5 189.13V147H291V2H1V147Z" fill="black"/>
<path d="M247.5 191.87L221.72 147H0V0H292V147H247.5V191.87ZM1 146H222.3L246.5 188.13V146H291V1H1V146Z" fill="#F2F2F2"/>
<path opacity="0.3" d="M33 60.5C42.1127 60.5 49.5 53.1127 49.5 44C49.5 34.8873 42.1127 27.5 33 27.5C23.8873 27.5 16.5 34.8873 16.5 44C16.5 53.1127 23.8873 60.5 33 60.5Z" fill="#3C354C"/>
<path opacity="0.3" d="M239.5 118.5C242.814 118.5 245.5 115.814 245.5 112.5C245.5 109.186 242.814 106.5 239.5 106.5C236.186 106.5 233.5 109.186 233.5 112.5C233.5 115.814 236.186 118.5 239.5 118.5Z" fill="#6C63FF"/>
<path opacity="0.3" d="M254.5 118.5C257.814 118.5 260.5 115.814 260.5 112.5C260.5 109.186 257.814 106.5 254.5 106.5C251.186 106.5 248.5 109.186 248.5 112.5C248.5 115.814 251.186 118.5 254.5 118.5Z" fill="#6C63FF"/>
<path opacity="0.3" d="M269.5 118.5C272.814 118.5 275.5 115.814 275.5 112.5C275.5 109.186 272.814 106.5 269.5 106.5C266.186 106.5 263.5 109.186 263.5 112.5C263.5 115.814 266.186 118.5 269.5 118.5Z" fill="#6C63FF"/>
</svg>
