<svg viewBox="0 0 20 20" xmlns="http://www.w3.org/2000/svg"><g fill="inherit"><path d="M15,2 L5,2 C4.447,2 4,2.447 4,3 L4,9 L9.586,9 L8.293,7.707 C7.902,7.316 7.902,6.684 8.293,6.293 C8.684,5.902 9.316,5.902 9.707,6.293 L12.707,9.293 C13.098,9.684 13.098,10.316 12.707,10.707 L9.707,13.707 C9.512,13.902 9.256,14 9,14 C8.744,14 8.488,13.902 8.293,13.707 C7.902,13.316 7.902,12.684 8.293,12.293 L9.586,11 L4,11 L4,17 C4,17.553 4.447,18 5,18 L15,18 C15.553,18 16,17.553 16,17 L16,3 C16,2.447 15.553,2 15,2"></path></g></svg>