<svg viewBox="0 0 20 20" xmlns="http://www.w3.org/2000/svg"><g fill="inherit"><path d="M15,15.5 L5,15.5 C4.724,15.5 4.5,15.276 4.5,15 C4.5,12.755 6.326,10.929 8.571,10.929 L11.429,10.929 C13.674,10.929 15.5,12.755 15.5,15 C15.5,15.276 15.276,15.5 15,15.5 M10,4.5 C11.405,4.5 12.547,5.643 12.547,7.048 C12.547,8.452 11.405,9.595 10,9.595 C8.595,9.595 7.453,8.452 7.453,7.048 C7.453,5.643 8.595,4.5 10,4.5 M16,2 L4,2 C2.897,2 2,2.897 2,4 L2,16 C2,17.103 2.897,18 4,18 L16,18 C17.103,18 18,17.103 18,16 L18,4 C18,2.897 17.103,2 16,2"></path></g></svg>